<svg width="414" height="141" viewBox="0 0 414 141" fill="none" xmlns="http://www.w3.org/2000/svg">
<rect x="2.5" y="2.5" width="409" height="136" rx="26.5" stroke="white" stroke-width="5"/>
<path d="M83.6738 67.82L96.6106 54.8831L54.825 31.3981C52.0556 29.9019 49.4612 29.6919 47.1862 31.3281L83.6738 67.82ZM98.8156 82.9663L112.264 75.4019C114.889 73.9319 116.329 71.8494 116.329 69.5394C116.329 67.2337 114.889 65.1469 112.269 63.6769L100.093 56.8387L86.3863 70.5413L98.8156 82.9663ZM44.9375 34.5087C44.6575 35.3706 44.5 36.3331 44.5 37.3875V101.722C44.5 103.389 44.8675 104.824 45.5325 105.966L80.9569 70.5369L44.9375 34.5087ZM83.6738 73.2494L48.4462 108.481C49.12 108.739 49.8462 108.875 50.6119 108.875C51.9769 108.875 53.3987 108.473 54.8469 107.668L95.3375 84.9306L83.6738 73.2494Z" fill="white"/>
<path d="M157.524 38.94V45.24H165.984V49.236H157.524V55.896H167.064V60H152.484V34.836H167.064V38.94H157.524ZM196.412 39.768C198.86 39.768 200.828 40.524 202.316 42.036C203.828 43.524 204.584 45.612 204.584 48.3V60H199.544V48.984C199.544 47.424 199.148 46.236 198.356 45.42C197.564 44.58 196.484 44.16 195.116 44.16C193.748 44.16 192.656 44.58 191.84 45.42C191.048 46.236 190.652 47.424 190.652 48.984V60H185.612V48.984C185.612 47.424 185.216 46.236 184.424 45.42C183.632 44.58 182.552 44.16 181.184 44.16C179.792 44.16 178.688 44.58 177.872 45.42C177.08 46.236 176.684 47.424 176.684 48.984V60H171.644V40.056H176.684V42.468C177.332 41.628 178.16 40.968 179.168 40.488C180.2 40.008 181.328 39.768 182.552 39.768C184.112 39.768 185.504 40.104 186.728 40.776C187.952 41.424 188.9 42.36 189.572 43.584C190.22 42.432 191.156 41.508 192.38 40.812C193.628 40.116 194.972 39.768 196.412 39.768ZM222.985 42.972C223.633 42.012 224.521 41.232 225.649 40.632C226.801 40.032 228.109 39.732 229.573 39.732C231.277 39.732 232.813 40.152 234.181 40.992C235.573 41.832 236.665 43.032 237.457 44.592C238.273 46.128 238.681 47.916 238.681 49.956C238.681 51.996 238.273 53.808 237.457 55.392C236.665 56.952 235.573 58.164 234.181 59.028C232.813 59.892 231.277 60.324 229.573 60.324C228.085 60.324 226.777 60.036 225.649 59.46C224.545 58.86 223.657 58.092 222.985 57.156V60H217.945V33.36H222.985V42.972ZM233.533 49.956C233.533 48.756 233.281 47.724 232.777 46.86C232.297 45.972 231.649 45.3 230.833 44.844C230.041 44.388 229.177 44.16 228.241 44.16C227.329 44.16 226.465 44.4 225.649 44.88C224.857 45.336 224.209 46.008 223.705 46.896C223.225 47.784 222.985 48.828 222.985 50.028C222.985 51.228 223.225 52.272 223.705 53.16C224.209 54.048 224.857 54.732 225.649 55.212C226.465 55.668 227.329 55.896 228.241 55.896C229.177 55.896 230.041 55.656 230.833 55.176C231.649 54.696 232.297 54.012 232.777 53.124C233.281 52.236 233.533 51.18 233.533 49.956ZM247.383 43.152C248.031 42.096 248.871 41.268 249.903 40.668C250.959 40.068 252.159 39.768 253.503 39.768V45.06H252.171C250.587 45.06 249.387 45.432 248.571 46.176C247.779 46.92 247.383 48.216 247.383 50.064V60H242.343V40.056H247.383V43.152ZM275.438 49.596C275.438 50.316 275.39 50.964 275.294 51.54H260.714C260.834 52.98 261.338 54.108 262.226 54.924C263.114 55.74 264.206 56.148 265.502 56.148C267.374 56.148 268.706 55.344 269.498 53.736H274.934C274.358 55.656 273.254 57.24 271.622 58.488C269.99 59.712 267.986 60.324 265.61 60.324C263.69 60.324 261.962 59.904 260.426 59.064C258.914 58.2 257.726 56.988 256.862 55.428C256.022 53.868 255.602 52.068 255.602 50.028C255.602 47.964 256.022 46.152 256.862 44.592C257.702 43.032 258.878 41.832 260.39 40.992C261.902 40.152 263.642 39.732 265.61 39.732C267.506 39.732 269.198 40.14 270.686 40.956C272.198 41.772 273.362 42.936 274.178 44.448C275.018 45.936 275.438 47.652 275.438 49.596ZM270.218 48.156C270.194 46.86 269.726 45.828 268.814 45.06C267.902 44.268 266.786 43.872 265.466 43.872C264.218 43.872 263.162 44.256 262.298 45.024C261.458 45.768 260.942 46.812 260.75 48.156H270.218ZM287.433 55.356L292.473 40.056H297.837L290.457 60H284.337L276.993 40.056H282.393L287.433 55.356ZM319.208 49.596C319.208 50.316 319.16 50.964 319.064 51.54H304.484C304.604 52.98 305.108 54.108 305.996 54.924C306.884 55.74 307.976 56.148 309.272 56.148C311.144 56.148 312.476 55.344 313.268 53.736H318.704C318.128 55.656 317.024 57.24 315.392 58.488C313.76 59.712 311.756 60.324 309.38 60.324C307.46 60.324 305.732 59.904 304.196 59.064C302.684 58.2 301.496 56.988 300.632 55.428C299.792 53.868 299.372 52.068 299.372 50.028C299.372 47.964 299.792 46.152 300.632 44.592C301.472 43.032 302.648 41.832 304.16 40.992C305.672 40.152 307.412 39.732 309.38 39.732C311.276 39.732 312.968 40.14 314.456 40.956C315.968 41.772 317.132 42.936 317.948 44.448C318.788 45.936 319.208 47.652 319.208 49.596ZM313.988 48.156C313.964 46.86 313.496 45.828 312.584 45.06C311.672 44.268 310.556 43.872 309.236 43.872C307.988 43.872 306.932 44.256 306.068 45.024C305.228 45.768 304.712 46.812 304.52 48.156H313.988ZM342.516 39.768C344.892 39.768 346.812 40.524 348.276 42.036C349.74 43.524 350.472 45.612 350.472 48.3V60H345.432V48.984C345.432 47.4 345.036 46.188 344.244 45.348C343.452 44.484 342.372 44.052 341.004 44.052C339.612 44.052 338.508 44.484 337.692 45.348C336.9 46.188 336.504 47.4 336.504 48.984V60H331.464V40.056H336.504V42.54C337.176 41.676 338.028 41.004 339.06 40.524C340.116 40.02 341.268 39.768 342.516 39.768ZM353.969 49.956C353.969 47.94 354.365 46.152 355.157 44.592C355.973 43.032 357.065 41.832 358.433 40.992C359.825 40.152 361.373 39.732 363.077 39.732C364.565 39.732 365.861 40.032 366.965 40.632C368.093 41.232 368.993 41.988 369.665 42.9V40.056H374.741V60H369.665V57.084C369.017 58.02 368.117 58.8 366.965 59.424C365.837 60.024 364.529 60.324 363.041 60.324C361.361 60.324 359.825 59.892 358.433 59.028C357.065 58.164 355.973 56.952 355.157 55.392C354.365 53.808 353.969 51.996 353.969 49.956ZM369.665 50.028C369.665 48.804 369.425 47.76 368.945 46.896C368.465 46.008 367.817 45.336 367.001 44.88C366.185 44.4 365.309 44.16 364.373 44.16C363.437 44.16 362.573 44.388 361.781 44.844C360.989 45.3 360.341 45.972 359.837 46.86C359.357 47.724 359.117 48.756 359.117 49.956C359.117 51.156 359.357 52.212 359.837 53.124C360.341 54.012 360.989 54.696 361.781 55.176C362.597 55.656 363.461 55.896 364.373 55.896C365.309 55.896 366.185 55.668 367.001 55.212C367.817 54.732 368.465 54.06 368.945 53.196C369.425 52.308 369.665 51.252 369.665 50.028Z" fill="white"/>
<path d="M172.068 84.0116C172.068 85.5476 171.708 86.9516 170.988 88.2236C170.292 89.4716 169.224 90.4796 167.784 91.2476C166.368 91.9916 164.628 92.3636 162.564 92.3636H159.072V100.932H152.016V75.5516H162.564C164.604 75.5516 166.332 75.9116 167.748 76.6316C169.188 77.3516 170.268 78.3476 170.988 79.6196C171.708 80.8916 172.068 82.3556 172.068 84.0116ZM161.88 86.7476C163.872 86.7476 164.868 85.8356 164.868 84.0116C164.868 82.1636 163.872 81.2396 161.88 81.2396H159.072V86.7476H161.88ZM181.959 74.2916V100.932H174.903V74.2916H181.959ZM184.825 90.8156C184.825 88.7276 185.197 86.9036 185.941 85.3436C186.709 83.7836 187.741 82.5836 189.037 81.7436C190.357 80.9036 191.821 80.4836 193.429 80.4836C194.821 80.4836 196.021 80.7596 197.029 81.3116C198.037 81.8636 198.817 82.6076 199.369 83.5436V80.7356H206.425V100.932H199.369V98.1236C198.817 99.0596 198.025 99.8036 196.993 100.356C195.985 100.908 194.797 101.184 193.429 101.184C191.821 101.184 190.357 100.764 189.037 99.9236C187.741 99.0836 186.709 97.8836 185.941 96.3236C185.197 94.7396 184.825 92.9036 184.825 90.8156ZM199.369 90.8156C199.369 89.5196 199.009 88.4996 198.289 87.7556C197.593 87.0116 196.729 86.6396 195.697 86.6396C194.641 86.6396 193.765 87.0116 193.069 87.7556C192.373 88.4756 192.025 89.4956 192.025 90.8156C192.025 92.1116 192.373 93.1436 193.069 93.9116C193.765 94.6556 194.641 95.0276 195.697 95.0276C196.729 95.0276 197.593 94.6556 198.289 93.9116C199.009 93.1676 199.369 92.1356 199.369 90.8156ZM232.19 80.7356L219.374 110.544H211.706L216.53 100.068L208.25 80.7356H216.098L220.346 92.1836L224.45 80.7356H232.19ZM250.502 101.184C247.55 101.184 245.126 100.488 243.23 99.0956C241.334 97.6796 240.314 95.6636 240.17 93.0476H247.694C247.766 93.9356 248.03 94.5836 248.486 94.9916C248.942 95.3996 249.53 95.6036 250.25 95.6036C250.898 95.6036 251.426 95.4476 251.834 95.1356C252.266 94.7996 252.482 94.3436 252.482 93.7676C252.482 93.0236 252.134 92.4476 251.438 92.0396C250.742 91.6316 249.614 91.1756 248.054 90.6716C246.398 90.1196 245.054 89.5916 244.022 89.0876C243.014 88.5596 242.126 87.8036 241.358 86.8196C240.614 85.8116 240.242 84.5036 240.242 82.8956C240.242 81.2636 240.65 79.8716 241.466 78.7196C242.282 77.5436 243.41 76.6556 244.85 76.0556C246.29 75.4556 247.922 75.1556 249.746 75.1556C252.698 75.1556 255.05 75.8516 256.802 77.2436C258.578 78.6116 259.526 80.5436 259.646 83.0396H251.978C251.954 82.2716 251.714 81.6956 251.258 81.3116C250.826 80.9276 250.262 80.7356 249.566 80.7356C249.038 80.7356 248.606 80.8916 248.27 81.2036C247.934 81.5156 247.766 81.9596 247.766 82.5356C247.766 83.0156 247.946 83.4356 248.306 83.7956C248.69 84.1316 249.158 84.4316 249.71 84.6956C250.262 84.9356 251.078 85.2476 252.158 85.6316C253.766 86.1836 255.086 86.7356 256.118 87.2876C257.174 87.8156 258.074 88.5716 258.818 89.5556C259.586 90.5156 259.97 91.7396 259.97 93.2276C259.97 94.7396 259.586 96.0956 258.818 97.2956C258.074 98.4956 256.982 99.4436 255.542 100.14C254.126 100.836 252.446 101.184 250.502 101.184ZM275.166 94.9196V100.932H272.106C266.946 100.932 264.366 98.3756 264.366 93.2636V86.6036H261.882V80.7356H264.366V75.8396H271.458V80.7356H275.13V86.6036H271.458V93.3716C271.458 93.9236 271.578 94.3196 271.818 94.5596C272.082 94.7996 272.514 94.9196 273.114 94.9196H275.166ZM287.799 101.184C285.783 101.184 283.971 100.764 282.363 99.9236C280.779 99.0836 279.531 97.8836 278.619 96.3236C277.707 94.7636 277.251 92.9276 277.251 90.8156C277.251 88.7276 277.707 86.9036 278.619 85.3436C279.555 83.7836 280.815 82.5836 282.399 81.7436C284.007 80.9036 285.819 80.4836 287.835 80.4836C289.851 80.4836 291.651 80.9036 293.235 81.7436C294.843 82.5836 296.103 83.7836 297.015 85.3436C297.951 86.9036 298.419 88.7276 298.419 90.8156C298.419 92.9036 297.951 94.7396 297.015 96.3236C296.103 97.8836 294.843 99.0836 293.235 99.9236C291.627 100.764 289.815 101.184 287.799 101.184ZM287.799 95.0636C288.783 95.0636 289.599 94.7036 290.247 93.9836C290.919 93.2396 291.255 92.1836 291.255 90.8156C291.255 89.4476 290.919 88.4036 290.247 87.6836C289.599 86.9636 288.795 86.6036 287.835 86.6036C286.875 86.6036 286.071 86.9636 285.423 87.6836C284.775 88.4036 284.451 89.4476 284.451 90.8156C284.451 92.2076 284.763 93.2636 285.387 93.9836C286.011 94.7036 286.815 95.0636 287.799 95.0636ZM308.345 84.2996C309.137 83.1476 310.097 82.2356 311.225 81.5636C312.353 80.8916 313.565 80.5556 314.861 80.5556V88.0796H312.881C311.345 88.0796 310.205 88.3796 309.461 88.9796C308.717 89.5796 308.345 90.6236 308.345 92.1116V100.932H301.289V80.7356H308.345V84.2996ZM336.687 90.5996C336.687 91.1516 336.651 91.7036 336.579 92.2556H323.223C323.295 93.3596 323.595 94.1876 324.123 94.7396C324.675 95.2676 325.371 95.5316 326.211 95.5316C327.387 95.5316 328.227 95.0036 328.731 93.9476H336.255C335.943 95.3396 335.331 96.5876 334.419 97.6916C333.531 98.7716 332.403 99.6236 331.035 100.248C329.667 100.872 328.155 101.184 326.499 101.184C324.507 101.184 322.731 100.764 321.171 99.9236C319.635 99.0836 318.423 97.8836 317.535 96.3236C316.671 94.7636 316.239 92.9276 316.239 90.8156C316.239 88.7036 316.671 86.8796 317.535 85.3436C318.399 83.7836 319.599 82.5836 321.135 81.7436C322.695 80.9036 324.483 80.4836 326.499 80.4836C328.491 80.4836 330.255 80.8916 331.791 81.7076C333.327 82.5236 334.527 83.6996 335.391 85.2356C336.255 86.7476 336.687 88.5356 336.687 90.5996ZM329.487 88.8356C329.487 87.9716 329.199 87.2996 328.623 86.8196C328.047 86.3156 327.327 86.0636 326.463 86.0636C325.599 86.0636 324.891 86.3036 324.339 86.7836C323.787 87.2396 323.427 87.9236 323.259 88.8356H329.487Z" fill="white"/>
</svg>
