<svg version="1.2" xmlns="http://www.w3.org/2000/svg" viewBox="0 0 671 500" width="671" height="500">
	<title>logo-svg</title>
	<style>
		.s0 { opacity: 1;fill: #ffffff } 
	</style>
	<g id="Layer">
		<path id="Layer" fill-rule="evenodd" class="s0" d="m232.5 6.5q4.4 4.2 7.5 10 47.9 83.4 97 166 12.6-22.4 25.5-44.5 37.7-1.5 75 1-50 86.2-101 171.5-51.5-86-101.5-173-1.1-1.4-2.5-0.5-75.4 130.1-150.5 260.5-37.6 1.5-75.5 1 4.4-10.8 10.5-21 108.5-185 215.5-371z"/>
	</g>
	<g id="Layer">
		<path id="Layer" fill-rule="evenodd" class="s0" d="m510.5 137.5q1.5-0.1 2.5 1 75.7 130.1 152.5 259.5-39 1.3-78-0.5-38-64-76-128-66.6 112.8-132.5 226-42.6 1.7-85.5 0.5-49.3-85.1-98-170.5 18.3-31.6 38-62 2.1 1.7 3.5 4 48.9 84.6 99.5 168 87.8-148.5 174-298z"/>
	</g>
</svg>